<svg id="Group_71352" data-name="Group 71352" xmlns="http://www.w3.org/2000/svg" xmlns:xlink="http://www.w3.org/1999/xlink" width="190" height="115.542" viewBox="0 0 190 115.542">
  <defs>
    <clipPath id="clip-path">
      <rect id="Rectangle_11815" data-name="Rectangle 11815" width="190" height="115.541" fill="none"/>
    </clipPath>
    <clipPath id="clip-path-3">
      <rect id="Rectangle_11813" data-name="Rectangle 11813" width="84.206" height="25.201" fill="none"/>
    </clipPath>
  </defs>
  <g id="Group_71351" data-name="Group 71351" clip-path="url(#clip-path)">
    <g id="Group_71350" data-name="Group 71350">
      <g id="Group_71349" data-name="Group 71349" clip-path="url(#clip-path)">
        <path id="Path_158672" data-name="Path 158672" d="M264.341,55.906s1.426,10.158,5.7,16.931c6.168,9.767-1.782,11.049-.178,17.822s13.9,12.476-.713,27.98c-9.564,10.148-21.03-9.623-21.03-9.623l-3.208-25.842Z" transform="translate(-91.529 -20.893)" fill="#fc6a5a"/>
        <path id="Path_158673" data-name="Path 158673" d="M259.622,80.163q-2.315-1.734-4.509-3.575l-10.2,12.639,3.208,22.817a37.342,37.342,0,0,0,6.867,7.559c1.047-1.16,3.507,4.217,4.9,3.736,4.633-1.6,13.01-10.515,6.95-17.287-7.237-8.089,1.425-17.288-7.214-25.889" transform="translate(-91.529 -28.622)" fill="#d35450"/>
        <path id="Path_158674" data-name="Path 158674" d="M227.027,125.847c-4.535-2.474-3.3-14.431-3.3-14.431l-6.792.437v-.436l-.727.218-.726-.218v.436l-6.792-.437s1.237,11.957-3.3,14.431-31.333,3.711-28.447,31.333h78.528c2.886-27.622-23.912-28.859-28.447-31.333" transform="translate(-66.047 -41.638)" fill="#f19c7c"/>
        <path id="Path_158675" data-name="Path 158675" d="M226.244,122.762q8.137-1.213,16.264-2.5a36.233,36.233,0,0,1-.274-8.844l-6.792.437v-.436l-.726.218-.727-.218v.436l-6.792-.437s.716,6.947-.952,11.346" transform="translate(-84.552 -41.638)" fill="#c47d66"/>
        <path id="Path_158676" data-name="Path 158676" d="M262.316,155.673a42.678,42.678,0,0,1,.55-18.4c-1.148-.333-2.218-.618-3.172-.874-.432,4.991-1.018,10.061-2.9,14.557a24.227,24.227,0,0,1-2.607,4.715Z" transform="translate(-94.996 -50.976)" fill="#352c38"/>
        <path id="Path_158677" data-name="Path 158677" d="M241.622,141.949c-4.484,6.136-14.1,10.377-25.233,10.377s-20.748-4.242-25.232-10.377c-7.98,3.763-15.845,10.979-14.208,26.641H255.83c1.636-15.663-6.228-22.879-14.208-26.641" transform="translate(-66.047 -53.049)" fill="#fa9300"/>
        <path id="Path_158678" data-name="Path 158678" d="M216.137,161.31c15.841,0,29.7-4.582,37.333-11.432a25.816,25.816,0,0,0-10.065-7.93c-4.484,6.136-14.1,10.378-25.232,10.378s-20.749-4.242-25.233-10.378A24.683,24.683,0,0,0,181.5,152.02c7.963,5.645,20.511,9.29,34.635,9.29" transform="translate(-67.831 -53.049)" fill="#fec573"/>
        <path id="Path_158679" data-name="Path 158679" d="M213.865,81.529c-1.336-4.145-4.5-3.186-4.8-3.086-.311.036-3.581.522-3.016,4.841.569,4.345,3.089,6.7,5.453,6.007,2.432-.386,3.7-3.592,2.36-7.762" transform="translate(-76.981 -29.254)" fill="#c47d66"/>
        <path id="Path_158680" data-name="Path 158680" d="M260.842,81.529c1.336-4.145,4.5-3.186,4.8-3.086.311.036,3.581.522,3.016,4.841-.569,4.345-3.089,6.7-5.453,6.007-2.432-.386-3.7-3.592-2.36-7.762" transform="translate(-97.278 -29.254)" fill="#c47d66"/>
        <path id="Path_158681" data-name="Path 158681" d="M213.261,63.254c1.656-18.173,15.471-17.156,16.774-17.019,1.3-.137,15.119-1.155,16.775,17.019,1.665,18.282-6.478,30.221-16.775,29.565-10.3.656-18.441-11.283-16.774-29.565" transform="translate(-79.619 -17.259)" fill="#f19c7c"/>
        <path id="Path_158682" data-name="Path 158682" d="M224.284,44.063s1.693,13.812,15.416,16.486l-3.386-8.465s1.159,10.247,14.793,9.713c0,0,4.99,2.317,3.208,7.663a10.961,10.961,0,0,0,3.03-11.049c-1.871-6.95,2.5-7.4-4.456-17.644-6.13-9.038-26.2-10.069-28.6,3.3" transform="translate(-83.819 -12.703)" fill="#fc6a5a"/>
        <path id="Path_158683" data-name="Path 158683" d="M213.3,44.077s-6.594-5.347-11.584.713-3.743,15.505-8.376,21.387-3.921,11.049,1.782,16.574-16.04,10.694-9.089,24.416,24.238,6.416,25.485-4.455.535-13.188.535-13.188-7.307-5.7-8.554-14.792.891-13.545,4.812-16.753,7.485-6.059,4.99-13.9" transform="translate(-69.007 -15.658)" fill="#fc6a5a"/>
        <path id="Path_158684" data-name="Path 158684" d="M189.244,131.827c-1.454-2.806-1.665-4.99-1.145-6.774-2.934,3.367-4.916,7.557-2.062,13.19,6.95,13.723,24.238,6.416,25.485-4.455.028-.241.053-.473.079-.706-5.47,4.321-16.992,9.1-22.356-1.254" transform="translate(-69.007 -46.735)" fill="#d35450"/>
        <path id="Path_158685" data-name="Path 158685" d="M243.4,87.949a15.79,15.79,0,0,1,1.5,5.515,24.818,24.818,0,0,1-2.461,2.025,24.206,24.206,0,0,1,1.834-2.413l-.091.319a15.583,15.583,0,0,1-.78-5.447" transform="translate(-90.605 -32.868)" fill="#a06653"/>
        <path id="Path_158686" data-name="Path 158686" d="M243.616,105.2c-3.289,3.2-8.861,3.02-13.081.171" transform="translate(-86.155 -39.316)" fill="#fff"/>
        <path id="Path_158687" data-name="Path 158687" d="M255.808,76.232c-2.394-1.43-4.956-2.5-7.535-.965-.368.181-.708.42-1.13.6,1.736-4.073,7.046-3.448,8.665.361" transform="translate(-92.362 -27.313)" fill="#352c38"/>
        <path id="Path_158688" data-name="Path 158688" d="M228.329,76.232c-2.394-1.43-4.956-2.5-7.535-.965-.368.181-.708.42-1.13.6,1.736-4.073,7.046-3.448,8.665.361" transform="translate(-82.093 -27.313)" fill="#352c38"/>
        <path id="Path_158689" data-name="Path 158689" d="M229.3,86.5c-.376-1.426-1.272-2.965-2.885-2.927-1.669-.154-2.489,1.425-2.6,2.927a3.392,3.392,0,0,1,.332-2.429,2.49,2.49,0,0,1,2.285-1.136c1.859-.059,3.018,1.906,2.871,3.565" transform="translate(-83.612 -30.992)" fill="#352c38"/>
        <path id="Path_158690" data-name="Path 158690" d="M254,86.1c-.376-1.426-1.272-2.965-2.885-2.927-1.669-.154-2.489,1.425-2.6,2.927a3.392,3.392,0,0,1,.332-2.429,2.49,2.49,0,0,1,2.285-1.136c1.859-.059,3.018,1.906,2.871,3.565" transform="translate(-92.841 -30.843)" fill="#352c38"/>
        <path id="Path_158691" data-name="Path 158691" d="M53.9,111.942s-8.7,5.484-3.971,13.805,37.444,6.052,20.613-13.805c-13.9-16.4-16.642,0-16.642,0" transform="translate(-18.132 -39.11)" fill="#76413b"/>
        <path id="Path_158692" data-name="Path 158692" d="M92.144,82.133s-3.782,4.539-3.026,9.077c1.088,6.531-8.888,15.129-19.1,12.293s.757-21.937.757-21.937Z" transform="translate(-24.541 -30.483)" fill="#76413b"/>
        <path id="Path_158693" data-name="Path 158693" d="M31.741,82.133s3.782,4.539,3.026,9.077c-1.088,6.531,8.889,15.129,19.1,12.293s-.757-21.937-.757-21.937Z" transform="translate(-11.862 -30.483)" fill="#76413b"/>
        <path id="Path_158694" data-name="Path 158694" d="M70.394,96.42A28.8,28.8,0,0,0,84.01,93.481a14.553,14.553,0,0,0,5.095-4.487,15.061,15.061,0,0,1,3.058-6.86l-21.369-.567s-4.651,8.1-5.074,14.538a45.758,45.758,0,0,0,4.673.315" transform="translate(-24.561 -30.483)" fill="#965450"/>
        <path id="Path_158695" data-name="Path 158695" d="M34.851,90.418a51.277,51.277,0,0,0,22.844,6c.168,0,.336-.005.5-.005-.288-6.481-5.089-14.848-5.089-14.848l-21.369.567s3.351,4.025,3.11,8.285" transform="translate(-11.862 -30.483)" fill="#965450"/>
        <path id="Path_158696" data-name="Path 158696" d="M55.57,122.263c-4.812-2.625-3.5-15.313-3.5-15.313l-7.207.465v-.463l-.771.231-.771-.231v.463l-7.207-.465s1.313,12.688-3.5,15.313S-1.768,126.2,1.294,155.511h85.6c3.063-29.31-26.508-30.623-31.32-33.247" transform="translate(-0.401 -39.969)" fill="#ffac9d"/>
        <path id="Path_158697" data-name="Path 158697" d="M55.411,118.99q8.635-1.287,17.258-2.656a38.446,38.446,0,0,1-.292-9.384l-7.207.465v-.463l-.772.232-.771-.232v.463l-7.207-.465s.76,7.373-1.01,12.04" transform="translate(-20.708 -39.969)" fill="#cc887f"/>
        <path id="Path_158698" data-name="Path 158698" d="M64.956,135.005c-4.212,3.817-10.429,6.462-17.525,7.145l-3.823,13.762-2.022-13.653c-7.69-.445-14.463-3.182-18.956-7.254C12.638,138.207-1.96,145.149.218,166H87.369c2.178-20.846-12.42-27.788-22.413-30.99" transform="translate(0 -50.454)" fill="#d44f4a"/>
        <path id="Path_158699" data-name="Path 158699" d="M52.446,145.76l-.519-3.5c-7.689-.445-14.463-3.183-18.956-7.254a50.8,50.8,0,0,0-5.3,2.01c3.544,4.817,13.19,8.361,24.775,8.744" transform="translate(-10.341 -50.454)" fill="#8d2925"/>
        <path id="Path_158700" data-name="Path 158700" d="M98.552,137.281a49.6,49.6,0,0,0-5.888-2.276c-4.213,3.817-10.429,6.462-17.526,7.145l-1,3.6c11.3-.4,20.734-3.814,24.415-8.473" transform="translate(-27.706 -50.454)" fill="#8d2925"/>
        <path id="Path_158701" data-name="Path 158701" d="M68.247,172.744a1.589,1.589,0,1,0,1.59-1.589,1.59,1.59,0,0,0-1.59,1.589" transform="translate(-25.505 -63.964)" fill="#8d2925"/>
        <path id="Path_158702" data-name="Path 158702" d="M42.276,75.236c-1.418-4.4-4.775-3.381-5.09-3.274-.329.038-3.8.554-3.2,5.136.6,4.61,3.278,7.108,5.786,6.374,2.581-.409,3.93-3.812,2.5-8.236" transform="translate(-12.675 -26.828)" fill="#cc887f"/>
        <path id="Path_158703" data-name="Path 158703" d="M92.123,75.236c1.418-4.4,4.775-3.381,5.09-3.274.329.038,3.8.554,3.2,5.136-.6,4.61-3.278,7.108-5.786,6.374-2.581-.409-3.93-3.812-2.5-8.236" transform="translate(-34.212 -26.828)" fill="#cc887f"/>
        <path id="Path_158704" data-name="Path 158704" d="M41.635,55.844c1.757-19.284,16.417-18.2,17.8-18.059,1.382-.145,16.043-1.225,17.8,18.059,1.768,19.4-6.873,32.068-17.8,31.372-10.927.7-19.568-11.973-17.8-31.372" transform="translate(-15.474 -14.1)" fill="#ffac9d"/>
        <path id="Path_158705" data-name="Path 158705" d="M40.793,68.878s-.946,25.341,13.994,28.178,24.206-9.645,22.882-29.5l-1.891-.189S74.549,87.411,70.011,87.6s2.174-6.241-6.525-6.619-13-3.279-13.711,4.066c-.473,4.917-6.525-3.5-7.281-16.548s-1.7.378-1.7.378" transform="translate(-15.241 -23.468)" fill="#965450"/>
        <path id="Path_158706" data-name="Path 158706" d="M43.212,74.324a45.186,45.186,0,0,1-.717-5.823c-.757-13.049-1.7.378-1.7.378a51.284,51.284,0,0,0,.294,6.541c.711-.361,1.418-.728,2.125-1.1" transform="translate(-15.241 -23.469)" fill="#76413b"/>
        <path id="Path_158707" data-name="Path 158707" d="M98.206,77.218a52.282,52.282,0,0,0-.017-6.937L96.3,70.092s-.169,2.746-.611,6.212q1.262.449,2.519.914" transform="translate(-35.76 -26.195)" fill="#76413b"/>
        <path id="Path_158708" data-name="Path 158708" d="M72.943,70.266A57.764,57.764,0,0,1,74.529,81.28a42.248,42.248,0,0,1-3.742,2.1c1-.934,2.06-1.787,3.14-2.61l-.161.352a57.309,57.309,0,0,1-.822-10.853" transform="translate(-26.454 -26.26)" fill="#cc887f"/>
        <path id="Path_158709" data-name="Path 158709" d="M86.783,65.991c-2.565-1.521-5.229-2.647-8-1.025-.391.193-.752.447-1.2.641,1.842-4.32,7.484-3.656,9.2.383" transform="translate(-28.996 -23.414)" fill="#352c38"/>
        <path id="Path_158710" data-name="Path 158710" d="M57.623,65.991c-2.565-1.521-5.229-2.647-8-1.025-.391.193-.752.447-1.2.641,1.843-4.32,7.484-3.656,9.2.383" transform="translate(-18.098 -23.414)" fill="#352c38"/>
        <path id="Path_158711" data-name="Path 158711" d="M58.656,76.879c-.4-1.513-1.35-3.146-3.062-3.106-1.771-.163-2.64,1.512-2.761,3.106a3.6,3.6,0,0,1,.353-2.577,2.946,2.946,0,0,1,4.81.066,4.131,4.131,0,0,1,.661,2.511" transform="translate(-19.711 -27.315)" fill="#352c38"/>
        <path id="Path_158712" data-name="Path 158712" d="M84.859,76.457c-.4-1.513-1.35-3.146-3.062-3.106-1.771-.163-2.64,1.512-2.761,3.106a3.6,3.6,0,0,1,.353-2.577,2.946,2.946,0,0,1,4.81.066,4.129,4.129,0,0,1,.661,2.511" transform="translate(-29.504 -27.157)" fill="#352c38"/>
        <path id="Path_158713" data-name="Path 158713" d="M73.845,96.731c-3.49,3.393-9.4,3.2-13.88.181" transform="translate(-22.41 -36.15)" fill="#fff"/>
        <path id="Path_158714" data-name="Path 158714" d="M54.094,36.266S43.5,34.375,41.8,40.994s.756,15.507-7,14.183c0,0-5.622,1.135-2.029,10.023,0,0-10.641-10.212-4.4-17.587,5.092-6.017,3.026-19.1,15.507-21.181s10.212,7.376,10.212,9.834" transform="translate(-9.871 -9.767)" fill="#76413b"/>
        <path id="Path_158715" data-name="Path 158715" d="M54.094,36.266S43.5,34.375,41.8,40.994s.756,15.507-7,14.183c0,0-5.622,1.135-2.029,10.023,0,0-10.641-10.212-4.4-17.587,5.092-6.017,3.026-19.1,15.507-21.181s10.212,7.376,10.212,9.834" transform="translate(-9.871 -9.767)" fill="#965450"/>
        <path id="Path_158716" data-name="Path 158716" d="M68.976,36.266s10.59-1.891,12.292,4.728-.756,15.507,7,14.183c0,0,5.623,1.135,2.03,10.023,0,0,10.641-10.212,4.4-17.587C89.6,41.6,91.669,28.513,79.188,26.432s-10.212,7.376-10.212,9.834" transform="translate(-25.717 -9.767)" fill="#965450"/>
        <path id="Path_158717" data-name="Path 158717" d="M68.789,39.817c4.252.044,9.245.7,11.876,4.469a8.488,8.488,0,0,1,1.1,4.289c.169,2.832-.221,5.6-.054,8.3.136,3.2,1.7,4.834,4.97,4.589,1.613.218,3.493,1.3,3.337,3.15.063-1.774-1.954-2.694-3.329-2.763-2.214.348-4.666-.444-5.374-2.781-1.055-3.374-.413-7.056-.774-10.4.037-6.1-6.83-7.333-11.7-7.3l-.059-1.543" transform="translate(-25.708 -14.88)" fill="#965450"/>
        <path id="Path_158718" data-name="Path 158718" d="M140.771,115.8c-5.312-2.9-3.864-16.9-3.864-16.9l-7.956.512V98.9l-.851.256-.852-.256v.51l-7.956-.512s1.449,14.006-3.863,16.9-36.7,4.346-33.322,36.7h91.984c3.381-32.356-28.009-33.8-33.321-36.7" transform="translate(-30.591 -36.959)" fill="#965450"/>
        <path id="Path_158719" data-name="Path 158719" d="M139.853,112.185q9.532-1.42,19.051-2.932a42.443,42.443,0,0,1-.322-10.359l-7.956.513V98.9l-.852.256-.851-.256v.511l-7.956-.513s.839,8.138-1.115,13.291" transform="translate(-52.266 -36.959)" fill="#76413b"/>
        <path id="Path_158720" data-name="Path 158720" d="M146.957,128.019a21.054,21.054,0,0,1-38.707,0c-10.942,3-30.177,9.428-27.467,35.365h93.642c2.71-25.937-16.526-32.364-27.467-35.365" transform="translate(-30.093 -47.843)" fill="#fdedee"/>
        <g id="Group_71348" data-name="Group 71348" transform="translate(60.383 90.34)" opacity="0.1">
          <g id="Group_71347" data-name="Group 71347">
            <g id="Group_71346" data-name="Group 71346" clip-path="url(#clip-path-3)">
              <path id="Path_158721" data-name="Path 158721" d="M172.888,144.249c-11.738,7.595-25.9,10.572-39.061,14.765-12.342,3.931-24.839,7.334-37.412,10.436h83.948c1.264-12.107-2.253-19.96-7.475-25.2" transform="translate(-96.415 -144.249)" fill="#352c38"/>
            </g>
          </g>
        </g>
        <path id="Path_158722" data-name="Path 158722" d="M189.557,128.855V163.7h25.615c2.563-24.531-14.5-31.608-25.615-34.842" transform="translate(-70.841 -48.156)" fill="#6f96bd"/>
        <path id="Path_158723" data-name="Path 158723" d="M106.222,128.936c-11.118,3.258-27.989,10.391-25.44,34.791h25.44Z" transform="translate(-30.093 -48.186)" fill="#6f96bd"/>
        <path id="Path_158724" data-name="Path 158724" d="M114.746,128.09v34.791s-12.839-21.888-12.212-29.4,10.96-7.958,12.212-5.388" transform="translate(-38.31 -47.34)" fill="#88bbe5"/>
        <path id="Path_158725" data-name="Path 158725" d="M188.521,128.09v34.791s12.839-21.888,12.212-29.4-10.96-7.958-12.212-5.388" transform="translate(-70.454 -47.34)" fill="#88bbe5"/>
        <path id="Path_158726" data-name="Path 158726" d="M125.353,63.885c-1.565-4.856-5.271-3.731-5.618-3.614-.364.043-4.195.611-3.533,5.67.666,5.089,3.618,7.847,6.387,7.037,2.85-.452,4.339-4.207,2.764-9.092" transform="translate(-43.398 -22.452)" fill="#76413b"/>
        <path id="Path_158727" data-name="Path 158727" d="M180.38,63.885c1.565-4.856,5.271-3.731,5.618-3.614.364.043,4.195.611,3.533,5.67-.666,5.089-3.618,7.847-6.387,7.037-2.85-.452-4.339-4.207-2.764-9.092" transform="translate(-67.173 -22.452)" fill="#76413b"/>
        <path id="Path_158728" data-name="Path 158728" d="M124.645,42.479c1.94-21.288,18.123-20.1,19.65-19.935,1.526-.16,17.709-1.353,19.649,19.935,1.951,21.414-7.587,35.4-19.649,34.631-12.063.77-21.6-13.216-19.65-34.631" transform="translate(-46.487 -8.401)" fill="#965450"/>
        <path id="Path_158729" data-name="Path 158729" d="M159.208,58.4a63.893,63.893,0,0,1,1.75,12.159,47.17,47.17,0,0,1-4.131,2.314c.548-.523,1.126-1,1.7-1.486s1.169-.942,1.764-1.395l-.178.389a63.272,63.272,0,0,1-.907-11.981" transform="translate(-58.609 -21.824)" fill="#76413b"/>
        <path id="Path_158730" data-name="Path 158730" d="M160.2,87.613c-3.853,3.745-10.379,3.538-15.323.2" transform="translate(-54.144 -32.743)" fill="#fff"/>
        <path id="Path_158731" data-name="Path 158731" d="M174.484,53.679c-2.856-1.683-5.744-2.923-8.826-1.131-.431.212-.829.493-1.324.708,2.034-4.769,8.261-4.036,10.15.423" transform="translate(-61.415 -18.684)" fill="#352c38"/>
        <path id="Path_158732" data-name="Path 158732" d="M142.3,53.679c-2.856-1.683-5.744-2.923-8.826-1.131-.431.212-.829.493-1.324.708,2.034-4.769,8.261-4.036,10.15.423" transform="translate(-49.385 -18.684)" fill="#352c38"/>
        <path id="Path_158733" data-name="Path 158733" d="M143.434,65.7a6.318,6.318,0,0,0-1.191-2.419,2.922,2.922,0,0,0-4.365-.1,5.136,5.136,0,0,0-.872,2.516,3.955,3.955,0,0,1,.389-2.845,2.918,2.918,0,0,1,2.677-1.331c2.173-.07,3.542,2.233,3.363,4.176" transform="translate(-51.163 -22.992)" fill="#352c38"/>
        <path id="Path_158734" data-name="Path 158734" d="M172.36,65.235a6.317,6.317,0,0,0-1.191-2.419,2.922,2.922,0,0,0-4.365-.1,5.136,5.136,0,0,0-.872,2.516,3.955,3.955,0,0,1,.389-2.845A2.918,2.918,0,0,1,169,61.059c2.173-.07,3.542,2.233,3.363,4.176" transform="translate(-61.973 -22.817)" fill="#352c38"/>
        <path id="Path_158735" data-name="Path 158735" d="M161.374,17.665c-1.092-4.366-3.7-5.471-4.945-5.75C155.709.666,125.65-1.4,125.258.755c-.417,2.3,10.647,6.054,10.647,6.054s-19.832-5.219-18.788-.626c.848,3.731,8.859,3.329,11.836,3.046-4.186.522-18.495,2.82-12.045,9.27a10.429,10.429,0,0,0,1.7,1.37c-.6,8,1.772,26.812,1.772,26.812h1.669l-.626-12.943c3.236-.648,4.716-8.315,5.218-11.732a38.287,38.287,0,0,0,13.022-2.553c-1.228.572-3.166,1.88-1.048,3.847,2.162,2.007,9.917-.438,13.808-1.848.716,3.049,3.017,11.6,6.443,12.286l-.626,12.943h1.67s2.922-23.172,1.461-29.018" transform="translate(-43.076 0)" fill="#636363"/>
        <path id="Path_158736" data-name="Path 158736" d="M176.045,21.626c-1.092-4.366-3.7-5.471-4.945-5.75a7.589,7.589,0,0,0-2.978-5.276c-.936,7.628-6.518,14.114-13.6,17.253,3.05.741,9.236-1.228,12.579-2.439.716,3.049,3.017,11.6,6.443,12.286l-.626,12.943h1.67s2.922-23.172,1.461-29.017" transform="translate(-57.746 -3.961)" fill="#413939"/>
      </g>
    </g>
  </g>
</svg>
