<svg xmlns="http://www.w3.org/2000/svg" xmlns:xlink="http://www.w3.org/1999/xlink" width="295" height="205" viewBox="0 0 295 205">
  <defs>
    <clipPath id="clip-path">
      <rect id="Rectangle_12042" data-name="Rectangle 12042" width="247.975" height="192.618" transform="translate(0 0)" fill="none"/>
    </clipPath>
  </defs>
  <g id="Group_71760" data-name="Group 71760" transform="translate(-1020 -853)">
    <g id="Group_71759" data-name="Group 71759" transform="translate(1043.513 865.193)">
      <g id="Group_71758" data-name="Group 71758" transform="translate(0 0.005)" clip-path="url(#clip-path)">
        <path id="Path_159645" data-name="Path 159645" d="M1149.305,1080.13s24.323-11.993,28.506-18.248-1.966-6.609-1.966-6.609,10.854-10.556,9.327-15-7.15-.368-7.15-.368,6.979-15.536,3.688-17.1c-6.129-2.909-14.728,13.807-14.728,13.807s1.848-7.262-2.373-7.026c-6.365.356-6.1,16.782-6.1,16.782s-.719-6.3-4.555-4.252c-6.883,3.671-4.646,38.013-4.646,38.013" transform="translate(-998.803 -888.843)" fill="#355389"/>
        <path id="Path_159646" data-name="Path 159646" d="M1150.173,1039.577c3-1.663,5.98,3.2,5.98,3.2s-.3-12.83,6.063-13.186c4.221-.236,2.373,7.025,2.373,7.025s8.6-16.715,14.728-13.807l-32.433,57.057c-.229-3.985-2.645-36.993,3.289-40.286" transform="translate(-996.409 -888.843)" fill="#466eb6"/>
        <path id="Path_159647" data-name="Path 159647" d="M1156.424,1294.616s19.893,2.47,25.043.269,1.459-4.921,1.459-4.921,11.059-2.174,11.913-5.566-4.249-3.122-4.249-3.122,10.6-6.867,9.187-9.179c-2.641-4.305-14.8,2.627-14.8,2.627s4.1-3.778,1.375-5.346c-4.115-2.365-10.626,7.988-10.626,7.988s.4-2.552-2.82-2.834c-5.785-.508-16.486,20.085-16.486,20.085" transform="translate(-1005.293 -1103.18)" fill="#355389"/>
        <path id="Path_159648" data-name="Path 159648" d="M1172.378,1260.234c3.224.283,2.95,4.689,2.95,4.689s6.628-12.272,10.743-9.907c2.729,1.568-.5,6.717-.5,6.717s11.163-6.384,13.8-2.079l-43.414,22.409c1.476-2.578,11.013-22.3,16.417-21.829" transform="translate(-1004.892 -1090.737)" fill="#466eb6"/>
        <path id="Path_159649" data-name="Path 159649" d="M518.983,1075.333s-24.323-11.993-28.506-18.248,1.966-6.609,1.966-6.609-10.854-10.557-9.327-15,7.225-.2,7.225-.2-7.055-15.707-3.764-17.268c6.129-2.909,14.728,13.807,14.728,13.807s-1.848-7.262,2.373-7.025c6.365.356,6.1,16.782,6.1,16.782s.719-6.3,4.555-4.252c6.884,3.671,4.646,38.012,4.646,38.012" transform="translate(-419.851 -884.673)" fill="#355389"/>
        <path id="Path_159650" data-name="Path 159650" d="M539.726,1034.78c-3-1.662-5.98,3.2-5.98,3.2s.3-12.83-6.063-13.186c-4.221-.236-2.373,7.026-2.373,7.026s-8.6-16.716-14.728-13.807l32.433,57.057c.229-3.985,2.645-36.993-3.289-40.286" transform="translate(-443.855 -884.673)" fill="#466eb6"/>
        <path id="Path_159651" data-name="Path 159651" d="M464.495,1289.818s-19.893,2.471-25.043.269-1.459-4.922-1.459-4.922-11.06-2.174-11.913-5.566,4.427-3.059,4.427-3.059-10.783-6.93-9.365-9.241c2.641-4.305,14.8,2.627,14.8,2.627s-4.1-3.778-1.375-5.346c4.115-2.365,10.625,7.988,10.625,7.988s-.4-2.552,2.82-2.834c5.785-.508,16.487,20.085,16.487,20.085" transform="translate(-365.991 -1099.009)" fill="#355389"/>
        <path id="Path_159652" data-name="Path 159652" d="M448.523,1253.309a3.37,3.37,0,0,0-3.174,3.415s-5.935-9.4-10.05-7.031c-2.729,1.568.5,6.717.5,6.717s-11.163-6.384-13.8-2.079l43.414,22.409c-1.476-2.579-11.483-23.905-16.886-23.431" transform="translate(-366.845 -1086.041)" fill="#466eb6"/>
        <path id="Path_159653" data-name="Path 159653" d="M1634.029,986.715c.6-1.44,1.207-2.883,2.76-3.613a3.474,3.474,0,0,1,3.686.471c3.163,2.379.407,5,4.008,9.511,1.119,1.4,2.473,2.534,3.144,4.176.938,2.3-.179,3.4-1.971,4.5-8.572,5.269-13.065-5.549-12.9-8.023a39.835,39.835,0,0,1,1.277-7.027" transform="translate(-1419.367 -854.335)" fill="#13375b"/>
        <path id="Path_159654" data-name="Path 159654" d="M1586.551,1380.015a24.268,24.268,0,0,0,1.178,3.78c.043.094.437.431.484.528a6.431,6.431,0,0,1-2.94,4.841,29.019,29.019,0,0,0,.8-2.835,33.552,33.552,0,0,0-2-4.672c1.164-.172,1.555-.9,2.482-1.642" transform="translate(-1377.05 -1199.664)" fill="#f7a491"/>
        <path id="Path_159655" data-name="Path 159655" d="M1554.173,1166.126l7.3,5.542s-3.613,3.476-4.969,4.768-9.717,7.308-9.835,7.6c-.088.219,1.9,7.136,3.186,10.828a8.924,8.924,0,0,1-3.475,1.816c-2.53-4.828-5.639-13.066-5.639-14.185,0-1.822,13.435-16.373,13.435-16.373" transform="translate(-1339.382 -1013.728)" fill="#355389"/>
        <path id="Path_159656" data-name="Path 159656" d="M1768.06,1231.75a33.276,33.276,0,0,0-2.426,4.97,13.312,13.312,0,0,0-2.4-1.591,24.734,24.734,0,0,0,2.419-4.478c.3-1.529.643-1.755.643-1.755s5.126,1.734,5.468,2.22-2.744-.3-3.7.634" transform="translate(-1532.8 -1068.295)" fill="#f7a491"/>
        <path id="Path_159657" data-name="Path 159657" d="M1780.185,1226.071c-.4,0,.034-1.8.126-2.211a.774.774,0,0,1,.44-.622,42.565,42.565,0,0,1,6.842,2.575,1.163,1.163,0,0,1,.2.229c.527.984-4.17,1.171-4.846.741a3.876,3.876,0,0,0-2.761-.711" transform="translate(-1547.392 -1063.375)" fill="#3c8f7c"/>
        <path id="Path_159658" data-name="Path 159658" d="M1631.612,1161.53l6.37-2.574c-.026.011.039.259.043.278.6,2.326,3.785,1.429,5.1,5.468.929,2.854,2.291,13.529,2.291,13.529a30.713,30.713,0,0,1,3.961-5.211c.232-.262,3.185,1.766,3.185,1.766-2.2,5.821-7.587,10.551-8.317,10.216-4.932-2.263-10.856-20.117-10.849-20.115-.561-1.092-1.784-3.357-1.784-3.357" transform="translate(-1418.38 -1007.495)" fill="#466eb6"/>
        <path id="Path_159659" data-name="Path 159659" d="M1584.12,908.5a54.312,54.312,0,0,1-3.507-6.3c-.519-1.573,0-9.067.045-9.6s1.855-1.988,1.57-2.407-2.777-.76-3.195-.678-1.232.007-1.564.344c-.044.044.793,2.017.776,2.323-.119,2.088-1.3,8.736-.917,10.534.446,2.067,4.883,8.673,4.883,8.673Z" transform="translate(-1371.123 -773.255)" fill="#f7a491"/>
        <path id="Path_159660" data-name="Path 159660" d="M1712.823,1038.742s7.992.2,9.746.343,8.121-.386,8.368-.415,1.878-2.79,2.149-2.494-.908,1.37-.543,1.648,4.28-.345,4.228-.055c-.1.542-2.382.473-2.379.734s2.391-.147,2.553.287-2.3.177-2.4.371,2.281.548,2.038.952c-.132.219-2.108-.366-2.1-.067s1.451.979,1.274,1.217-1.132-.731-1.968-.743-1.436-.449-2.771-.082-5.887,2.2-8.736,2.067-9.145-.416-9.145-.416Z" transform="translate(-1488.977 -900.742)" fill="#f7a491"/>
        <path id="Path_159661" data-name="Path 159661" d="M1607.16,1043.306c-.109-1.318-.293-4.875-.234-5.312a22.629,22.629,0,0,0-2.159-3.973s1.973-2.235,3.437-2.217a12.283,12.283,0,0,0,2.712,2.568,2.875,2.875,0,0,0,.581.173,47.5,47.5,0,0,1,5.741.091l-.412,6.023c-.209.345-.464,7.271-.9,7.841s-6.705,3.165-7.745,2.5c-.041-.026-.806-5.027-1.026-7.691" transform="translate(-1395.044 -896.96)" fill="#50bfa5"/>
        <path id="Path_159662" data-name="Path 159662" d="M1684.656,1052.339c.719-.344,5.971-.332,5.971-.332s.727,3.623.14,4.494c0,0-4.652.692-4.52,1.074Z" transform="translate(-1464.492 -914.523)" fill="#50bfa5"/>
        <path id="Path_159663" data-name="Path 159663" d="M1654.176,1028.563a16.042,16.042,0,0,0-.323,2.914c.081.824-.308,3.481-2.053,3.489s-.331-3.377-.167-4.185a30.894,30.894,0,0,0,.2-3.308Z" transform="translate(-1435.18 -893.195)" fill="#f7a491"/>
        <path id="Path_159664" data-name="Path 159664" d="M1657.542,1028.727c.027-.684.036-1.255.036-1.255l2.339,1.09s-.083.427-.166.972a2.044,2.044,0,0,1-2.21-.807" transform="translate(-1440.921 -893.194)" fill="#f47458"/>
        <path id="Path_159665" data-name="Path 159665" d="M1654.872,989.849a2.9,2.9,0,0,1,1.231,1.584c.329,1.084-.046,3.881-2.375,4.556s-3.337-1.54-2.858-3.271,1.523-3.925,4-2.869" transform="translate(-1435.02 -860.248)" fill="#f7a491"/>
        <path id="Path_159666" data-name="Path 159666" d="M1649.37,1002.568c.046.465.3.82.573.794s.454-.425.408-.89-.3-.821-.573-.794-.453.425-.408.89" transform="translate(-1433.811 -870.77)" fill="#f7a491"/>
        <path id="Path_159667" data-name="Path 159667" d="M1593.174,1408.872c.134-.374,1.659.751,2.018.978a.776.776,0,0,1,.435.625c-.019.181-3.635,4.964-4.717,5.644a.636.636,0,0,1-.387.051c-.622-.215.245-4.056,1.025-4.835a4.888,4.888,0,0,0,1.627-2.463" transform="translate(-1382.476 -1224.684)" fill="#3c8f7c"/>
        <path id="Path_159668" data-name="Path 159668" d="M1556.442,767.374l-6.416,2.281a1.054,1.054,0,0,0-.665.722l-1.756,6.6a1.052,1.052,0,0,1-1.854.37l-4.154-5.417a1.054,1.054,0,0,0-.891-.412l-6.8.354a1.058,1.058,0,0,1-.926-1.654l3.848-5.629a1.059,1.059,0,0,0,.114-.977l-2.447-6.377a1.054,1.054,0,0,1,1.281-1.392l6.533,1.939a1.051,1.051,0,0,0,.962-.192l5.288-4.3a1.055,1.055,0,0,1,1.718.794l.189,6.827a1.06,1.06,0,0,0,.48.858l5.715,3.723a1.058,1.058,0,0,1-.22,1.882" transform="translate(-1332.475 -654.638)" fill="#f7cc7f"/>
        <path id="Path_159669" data-name="Path 159669" d="M1600.169,894.778c.239.351-1.058,1.465-1.417,2.08l-.814-1.109c.4-.078,1.958-1.372,2.231-.971" transform="translate(-1389.107 -777.775)" fill="#f7a491"/>
        <path id="Path_159670" data-name="Path 159670" d="M1680.172,990.6s.422,3.12,1.431,3.684.587,1.947.587,1.947.915-3.214.117-4.246a4.44,4.44,0,0,0-2.135-1.384" transform="translate(-1460.594 -861.144)" fill="#13375b"/>
        <path id="Path_159671" data-name="Path 159671" d="M1685.191,1019.062c-.274.406-.273.886,0,1.071s.719.005.993-.4.273-.886,0-1.071-.719-.005-.993.4" transform="translate(-1464.779 -885.471)" fill="#f7a491"/>
        <path id="Path_159672" data-name="Path 159672" d="M1595.229,897.293l.019.022.3.385a1.178,1.178,0,0,0-1.034.1,1.257,1.257,0,0,1,.72-.506" transform="translate(-1386.126 -780.028)" fill="#f47257"/>
        <path id="Path_159673" data-name="Path 159673" d="M181.875,1162.582a12.8,12.8,0,0,1-2.128,2.492,9.3,9.3,0,0,0-1.985,3.828c-.431,2.162-.072,12.844-.448,13.6-3.222,3.15-5.555,11.055-6.21,13.467a2.582,2.582,0,0,1-.745,1.223l.143,2.725,1.6,1.474a8.168,8.168,0,0,1,.355-3.868s8.112-12.285,8.593-13.224c.92-2.674,4.27-16.375,4.27-16.375l.778-3.149-4.226-2.2" transform="translate(-148.096 -1010.647)" fill="#f7a491"/>
        <path id="Path_159674" data-name="Path 159674" d="M156.941,1428.022a9.687,9.687,0,0,1,1.1,2.17c.087.608.626,1.988,1.223,2.076.136.02,2.457.19,2.44-.1-.013-.222-.853-.538-1.243-.808-.674-.466-1.721-4.259-1.721-4.259s-1.754.435-1.8.922" transform="translate(-136.431 -1240.596)" fill="#f47458"/>
        <path id="Path_159675" data-name="Path 159675" d="M278.828,1183.048s5.225,11.171,5.258,13.135c.029,1.684-.913,11.13-.65,19,.009.284.369.662.893.9.295.135,1.717.77,1.717.77l.2.509-4.9-.349-.07-1.338s-1.95-11.767-1.751-15.1c.031-.523.285-3.653.285-3.653l-5.892-11.377,3.706-4.87Z" transform="translate(-238.116 -1026.379)" fill="#f7a491"/>
        <path id="Path_159676" data-name="Path 159676" d="M221.458,972.09a4.523,4.523,0,0,0-5.014-2.992,4.727,4.727,0,0,0-2.961-2.115c-2.365-.506-5.563.428-5.477,2.932-.917,1.682-.953,4.087.451,5.366-.488,2.262,1.63,4.449,4.384,4.369a4.869,4.869,0,0,0,4.6,2.382,11.06,11.06,0,0,1,1.211-.134c-.138-.026,2.919,2.318,5.509-1.286,2.643-3.678.786-8.13-2.707-8.522" transform="translate(-180.256 -840.495)" fill="#355389"/>
        <path id="Path_159677" data-name="Path 159677" d="M276.78,894.183a4.882,4.882,0,0,1,.47-.862l.2-.3a1.346,1.346,0,0,0,.055-.127,4.753,4.753,0,0,0,.021-1.112l-1.787.432-.392,1.031c-.4-.184-1.077-1.567-1.325-1.235-.293.392.811,2.093.9,2.553s-.949,7.608-1.249,9.028a38.592,38.592,0,0,1-2.322,5.382l1.85,2.347s2.966-6.042,3.161-7.886c.021-.194.044-.485.068-.844Z" transform="translate(-235.89 -775.239)" fill="#f7a491"/>
        <path id="Path_159678" data-name="Path 159678" d="M115.042,1066.924l-2.2-1.862s-1.779,2.965-3.2,5.383a45.012,45.012,0,0,1-5.245-3c-.181-.11-.581-2.8-.89-2.657s.238,1.42-.138,1.516-3.187-1.784-3.245-1.533c-.108.469,1.679,1.218,1.588,1.427s-1.8-.959-2.068-.667,1.714.951,1.724,1.141-1.946-.362-1.895.048c.028.223,1.751.448,1.643.684s-1.451.276-1.395.53,1.12-.189,1.77.1,1.26.145,2.166.909,5.361,5.125,6.749,4.751c1.212-.327,4.634-6.765,4.634-6.765" transform="translate(-86.473 -925.597)" fill="#f7a491"/>
        <path id="Path_159679" data-name="Path 159679" d="M219.881,1301.488s0,0,0,0h0" transform="translate(-191.145 -1131.4)" fill="#f47458"/>
        <path id="Path_159680" data-name="Path 159680" d="M198.936,1024.6a24.878,24.878,0,0,1,1.679-3.535s-1.541-1.958-2.792-1.81c0,0-1.681,2.787-2.637,2.88s-4.318.24-4.907.6a34.234,34.234,0,0,0-3.09,4.2s2.247,2.295,3.151,2.29a9.5,9.5,0,0,1,.672-1.153c.136.439,2.23,7.223,2.227,8.759l.016.013a4.4,4.4,0,0,0,6.322-.812,34.929,34.929,0,0,1-.077-4.064c.158-3.055.776-4.679-.565-7.361" transform="translate(-162.726 -886.04)" fill="#f47458"/>
        <path id="Path_159681" data-name="Path 159681" d="M234.494,1162.447l-10.255-14.815a10.077,10.077,0,0,1-1.906.61,19.786,19.786,0,0,1-4.432.19,1.093,1.093,0,0,1-.009.146c-.171,1.221-1.791,3.112-2.125,6.819a90.666,90.666,0,0,0-.021,11.995c6.817-.829,16.814-2.913,18.748-4.943" transform="translate(-187.388 -997.651)" fill="#466eb6"/>
        <path id="Path_159682" data-name="Path 159682" d="M301.447,901.287a1.773,1.773,0,0,1-1.192.292,2.237,2.237,0,0,1-.8-.342,2.246,2.246,0,0,0,.749.792c.771.414,1.241-.742,1.241-.742" transform="translate(-260.321 -783.457)" fill="#f47458"/>
        <path id="Path_159683" data-name="Path 159683" d="M207.646,749.463l5.963-1.23a.916.916,0,0,1,.84.261l4.36,4.433a.931.931,0,0,0,1.59-.586l.712-6.3a.981.981,0,0,1,.5-.753l5.378-2.952a1,1,0,0,0-.045-1.762l-5.523-2.665a.981.981,0,0,1-.534-.726l-1.036-6.257a.931.931,0,0,0-1.619-.5l-4.125,4.656a.917.917,0,0,1-.825.3l-6.018-.915a.975.975,0,0,0-.955,1.451l2.974,5.542a1.02,1.02,0,0,1,.023.914l-2.683,5.691a.974.974,0,0,0,1.029,1.4" transform="translate(-179.236 -634.689)" fill="#f7cc7f"/>
        <path id="Path_159684" data-name="Path 159684" d="M235.145,1015.707a15.5,15.5,0,0,1,.288,2.709c-.072.766.275,3.235,1.833,3.244s.3-3.14.149-3.89a29.882,29.882,0,0,1-.181-3.075Z" transform="translate(-204.414 -882.086)" fill="#f7a491"/>
        <path id="Path_159685" data-name="Path 159685" d="M237.266,1015.86c-.024-.636-.032-1.166-.032-1.166l-2.089,1.013s.074.4.148.9a1.789,1.789,0,0,0,1.973-.75" transform="translate(-204.414 -882.086)" fill="#f47458"/>
        <path id="Path_159686" data-name="Path 159686" d="M221.381,979.72a2.668,2.668,0,0,0-1.1,1.473c-.294,1.008.041,3.608,2.12,4.235s2.98-1.432,2.551-3.041-1.36-3.648-3.572-2.667" transform="translate(-191.414 -851.46)" fill="#f7a491"/>
        <path id="Path_159687" data-name="Path 159687" d="M252.758,991.544c-.041.432-.27.763-.512.738s-.405-.4-.364-.828.27-.763.512-.738.4.4.364.828" transform="translate(-218.959 -861.241)" fill="#f7a491"/>
        <path id="Path_159688" data-name="Path 159688" d="M218.352,1006.876c.244.378.243.824,0,1s-.642,0-.886-.373-.243-.824,0-1,.642-.005.886.373" transform="translate(-188.885 -874.907)" fill="#f7a491"/>
        <path id="Path_159689" data-name="Path 159689" d="M302.8,883.445a4.724,4.724,0,0,0-2.094,1.461c.016.207,1.681-.649,1.728-.513.037.107-1.864.605-1.765.8.068.13,1.773-.229,1.819-.146.071.131-1.423.187-1.326.331.112.167,1.534.1,1.534.1a3.224,3.224,0,0,0,.316-.633,1.4,1.4,0,0,0,.007-.295c-.006-.095.036-.177.023-.283-.053-.431-.018-.775-.241-.818" transform="translate(-261.374 -767.987)" fill="#f7a491"/>
        <path id="Path_159690" data-name="Path 159690" d="M292.509,890.7l-.635.785-.419-.313a.208.208,0,0,1,.014-.175c.049-.109,1.026-.589,1.04-.3" transform="translate(-253.355 -774.213)" fill="#f7a491"/>
        <path id="Path_159691" data-name="Path 159691" d="M329.791,1450.855h6.19c.229-.021.285-.205.205-.319a7.544,7.544,0,0,0-1.7-.78,10.568,10.568,0,0,1-4.749-1.151,6.026,6.026,0,0,0,.05,2.251" transform="translate(-286.582 -1259.29)" fill="#f47458"/>
        <path id="Path_159692" data-name="Path 159692" d="M294.661,896.9a4.058,4.058,0,0,1,1.188,1.113,1.444,1.444,0,0,1,.187,1.1l-1.439-1.771Z" transform="translate(-256.097 -779.685)" fill="#f7a491"/>
        <path id="Path_159693" data-name="Path 159693" d="M1142.025,361.05a6.283,6.283,0,0,1-.651,2.017q-.942,1.139-1.786,2.347c.388-.028.778-.046,1.172-.046a14.837,14.837,0,0,1,10.158,3.844,10.48,10.48,0,0,1,0,15.993,15.343,15.343,0,0,1-20.294.019c-.195.576-.388,1.148-.582,1.723a4.473,4.473,0,0,0-2.226,4.043c0,2.42,1.625,4.383,3.628,4.383a3.743,3.743,0,0,0,3.414-2.912,18.642,18.642,0,0,0,5.9.953c9.652,0,17.477-7.255,17.477-16.205,0-8.555-7.151-15.557-16.212-16.158" transform="translate(-980.425 -313.866)" fill="#e0973f"/>
        <path id="Path_159694" data-name="Path 159694" d="M528.971,361.05a6.28,6.28,0,0,0,.651,2.017q.943,1.139,1.786,2.347c-.388-.028-.778-.046-1.172-.046a14.837,14.837,0,0,0-10.158,3.844,10.48,10.48,0,0,0,0,15.993,15.343,15.343,0,0,0,20.294.019c.195.576.388,1.148.582,1.723a4.473,4.473,0,0,1,2.226,4.043c0,2.42-1.625,4.383-3.628,4.383a3.743,3.743,0,0,1-3.414-2.912,18.64,18.64,0,0,1-5.9.953c-9.652,0-17.477-7.255-17.477-16.205,0-8.555,7.151-15.557,16.212-16.158" transform="translate(-445.747 -313.866)" fill="#e0973f"/>
        <path id="Path_159695" data-name="Path 159695" d="M703.21,346.931V351.4A36.617,36.617,0,0,1,666.6,388.019c-9.313-.124-15.7.839-24.544-3.076A36.624,36.624,0,0,1,620.14,351.4v-4.474Z" transform="translate(-539.095 -301.592)" fill="#f7cc7f"/>
        <path id="Path_159696" data-name="Path 159696" d="M714.229,384.943l.028.012,13.161-38.025h-13.7l-10.549,30.483a36.663,36.663,0,0,0,11.061,7.529" transform="translate(-611.272 -301.592)" fill="#fae0b2"/>
        <path id="Path_159697" data-name="Path 159697" d="M811.322,387.509l13.888-40.578h-6.883l-13.32,38.925a33.216,33.216,0,0,0,6.314,1.653" transform="translate(-699.803 -301.592)" fill="#fae0b2"/>
        <path id="Path_159698" data-name="Path 159698" d="M677.77,376.021l10.386-29.09h-3.272l-9.4,26.321q1.075,1.442,2.283,2.77" transform="translate(-587.209 -301.592)" fill="#fae0b2"/>
        <path id="Path_159699" data-name="Path 159699" d="M690.723,327.526H615.115c-2.76,0-5.009,1.536-5.167,3.471h85.943c-.159-1.935-2.408-3.471-5.167-3.471" transform="translate(-530.235 -284.723)" fill="#f7cc7f"/>
        <path id="Path_159700" data-name="Path 159700" d="M830.542,653.131l4.278,21.961h18.707l5.3-21.961Z" transform="translate(-722 -567.775)" fill="#f7cc7f"/>
        <path id="Path_159701" data-name="Path 159701" d="M858.831,653.142l-1.2,4.956H831.513l-.967-4.956Z" transform="translate(-722.004 -567.785)" fill="#b75742"/>
        <path id="Path_159702" data-name="Path 159702" d="M858.831,882.968H830.547l2.12-10.9,2.155-11.061h18.71l2.671,11.061Z" transform="translate(-722.004 -748.484)" fill="#f7cc7f"/>
        <path id="Path_159703" data-name="Path 159703" d="M858.831,956.543H830.547l2.12-10.9H856.2Z" transform="translate(-722.004 -822.059)" fill="#b75742"/>
        <path id="Path_159704" data-name="Path 159704" d="M850.007,821.17h-25.27a2.019,2.019,0,0,0-2.019,2.018v1.169a2.019,2.019,0,0,0,2.019,2.018h25.27a2.018,2.018,0,0,0,2.018-2.018v-1.169a2.018,2.018,0,0,0-2.018-2.018" transform="translate(-715.199 -713.853)" fill="#fae0b2"/>
        <path id="Path_159705" data-name="Path 159705" d="M840.7,969.977H807.289v-6a1.17,1.17,0,0,1,1.17-1.17h31.068a1.17,1.17,0,0,1,1.17,1.17Z" transform="translate(-701.786 -836.979)" fill="#f7cc7f"/>
        <path id="Path_159706" data-name="Path 159706" d="M778.3,1020.186v2.182H722.8v-2.182c0-2.514,1.534-4.554,3.425-4.554h48.641c1.891,0,3.425,2.041,3.425,4.554" transform="translate(-628.343 -882.902)" fill="#f7cc7f"/>
        <path id="Path_159707" data-name="Path 159707" d="M795.691,1015.632l-1.756,6.736h-2.316l1.756-6.736Z" transform="translate(-688.164 -882.902)" fill="#fae0b2"/>
        <path id="Path_159708" data-name="Path 159708" d="M770.3,1015.632l-1.755,6.736h-2.319l1.758-6.736Z" transform="translate(-666.09 -882.902)" fill="#fae0b2"/>
        <path id="Path_159709" data-name="Path 159709" d="M818.229,1015.632l-1.756,6.736h-2.319l1.758-6.736Z" transform="translate(-707.754 -882.902)" fill="#fae0b2"/>
        <path id="Path_159710" data-name="Path 159710" d="M686.981,1418.231v2.181H593.995v-2.181c0-2.514,2.571-4.555,5.739-4.555h81.508c3.168,0,5.739,2.04,5.739,4.555" transform="translate(-516.367 -1228.926)" fill="#f7cc7f"/>
        <path id="Path_159711" data-name="Path 159711" d="M716.129,1413.676l-2.942,6.736h-3.881l2.942-6.736Z" transform="translate(-616.608 -1228.926)" fill="#fae0b2"/>
        <path id="Path_159712" data-name="Path 159712" d="M673.583,1413.676l-2.942,6.736h-3.885l2.947-6.736Z" transform="translate(-579.619 -1228.926)" fill="#fae0b2"/>
        <path id="Path_159713" data-name="Path 159713" d="M753.9,1413.676l-2.942,6.736h-3.885l2.947-6.736Z" transform="translate(-649.436 -1228.926)" fill="#fae0b2"/>
        <path id="Path_159714" data-name="Path 159714" d="M803.614,621.382v1.646a5.157,5.157,0,0,1-5.155,5.16H761.21a5.158,5.158,0,0,1-5.16-5.16v-1.646Z" transform="translate(-657.243 -540.175)" fill="#f7cc7f"/>
        <path id="Path_159715" data-name="Path 159715" d="M741.326,1112.465H671.351l.853-45.283h68.183Z" transform="translate(-583.614 -927.715)" fill="#d44f4a"/>
        <path id="Path_159716" data-name="Path 159716" d="M835.374,1112.465H798.68l.447-45.283h35.754Z" transform="translate(-694.302 -927.715)" fill="#d44f4a"/>
        <path id="Path_159717" data-name="Path 159717" d="M233.314,1465.218H.527a.527.527,0,1,0,0,1.054H233.314a.527.527,0,1,0,0-1.054" transform="translate(0 -1273.732)" fill="#184655"/>
        <path id="Path_159718" data-name="Path 159718" d="M934.04,1048.451l-5.548-9.06-8.155,6.809,8.39-51.089,13.7,2.25Z" transform="translate(-800.06 -865.063)" fill="#b75742"/>
        <path id="Path_159719" data-name="Path 159719" d="M1071.434,1046.135l-8.17-6.791-5.528,9.073-8.508-51.07,13.7-2.282Z" transform="translate(-912.106 -865.023)" fill="#b75742"/>
        <path id="Path_159720" data-name="Path 159720" d="M926.972,903.389c0,2.952-2.6,5.456-3.467,8.119-.9,2.76-.294,6.31-1.966,8.607-1.689,2.321-5.262,2.836-7.582,4.525-2.3,1.672-3.883,4.921-6.643,5.817-2.663.865-5.843-.8-8.795-.8s-6.132,1.668-8.795.8c-2.76-.9-4.346-4.145-6.643-5.817-2.32-1.689-5.894-2.2-7.583-4.525-1.672-2.3-1.069-5.847-1.965-8.607-.865-2.663-3.467-5.167-3.467-8.119s2.6-5.456,3.467-8.119c.9-2.76.294-6.31,1.966-8.607,1.689-2.32,5.262-2.836,7.582-4.525,2.3-1.672,3.883-4.921,6.643-5.817,2.663-.865,5.843.8,8.795.8s6.132-1.668,8.795-.8c2.76.9,4.346,4.145,6.643,5.817,2.32,1.689,5.894,2.2,7.583,4.525,1.672,2.3,1.069,5.847,1.965,8.607.865,2.663,3.467,5.167,3.467,8.119" transform="translate(-756.359 -761.581)" fill="#f47458"/>
        <path id="Path_159721" data-name="Path 159721" d="M919.344,942.378a15.161,15.161,0,0,1-3.037-.471,14.425,14.425,0,0,0-8.107,0,15.161,15.161,0,0,1-3.038.47,3.43,3.43,0,0,1-1.066-.148c-1.138-.369-2.158-1.528-3.239-2.755a17.975,17.975,0,0,0-2.827-2.767,18.237,18.237,0,0,0-3.54-1.862c-1.491-.648-2.9-1.261-3.588-2.208-.678-.932-.828-2.453-.986-4.064a18.548,18.548,0,0,0-.685-3.966,17.643,17.643,0,0,0-1.734-3.493c-.839-1.416-1.632-2.753-1.632-3.988s.793-2.572,1.632-3.988a17.648,17.648,0,0,0,1.734-3.493,18.527,18.527,0,0,0,.686-3.966c.158-1.611.307-3.132.985-4.064.69-.948,2.1-1.56,3.588-2.209a18.231,18.231,0,0,0,3.54-1.862,18,18,0,0,0,2.827-2.767c1.08-1.227,2.1-2.386,3.239-2.756a3.437,3.437,0,0,1,1.066-.147,15.155,15.155,0,0,1,3.038.471,14.429,14.429,0,0,0,8.107,0,15.148,15.148,0,0,1,3.037-.471,3.437,3.437,0,0,1,1.066.147c1.138.37,2.158,1.529,3.239,2.756a18.021,18.021,0,0,0,2.827,2.767,18.246,18.246,0,0,0,3.54,1.862c1.491.648,2.9,1.261,3.588,2.208.679.932.828,2.453.986,4.064a18.577,18.577,0,0,0,.685,3.966,17.651,17.651,0,0,0,1.734,3.493c.839,1.416,1.632,2.753,1.632,3.988s-.793,2.572-1.632,3.988a17.618,17.618,0,0,0-1.734,3.493,18.553,18.553,0,0,0-.686,3.966c-.158,1.611-.307,3.132-.986,4.064-.69.948-2.1,1.56-3.588,2.208a18.244,18.244,0,0,0-3.54,1.862,18.006,18.006,0,0,0-2.827,2.767c-1.081,1.227-2.1,2.386-3.239,2.755a3.427,3.427,0,0,1-1.067.148" transform="translate(-770.093 -775.318)" fill="#f7cc7f"/>
        <path id="Path_159722" data-name="Path 159722" d="M970.643,947.224A20.726,20.726,0,1,1,949.916,926.5a20.726,20.726,0,0,1,20.727,20.726" transform="translate(-807.756 -805.416)" fill="#f47458"/>
        <path id="Path_159723" data-name="Path 159723" d="M956.784,973.786a19.694,19.694,0,1,1,19.694-19.694,19.717,19.717,0,0,1-19.694,19.694" transform="translate(-814.624 -812.284)" fill="#fff"/>
        <path id="Path_159724" data-name="Path 159724" d="M986.874,966.328a17.855,17.855,0,1,1-17.855-17.855,17.855,17.855,0,0,1,17.855,17.855" transform="translate(-826.859 -824.519)" fill="#f7cc7f"/>
        <path id="Path_159725" data-name="Path 159725" d="M1004.5,1032.247l.664-5.01h-2.1v-1.508h2.326l.486-3.706h-2.2v-1.508h2.428l.665-4.883h1.483l-.639,4.883h2.658l.665-4.883h1.508l-.639,4.883h2.1v1.508h-2.326l-.46,3.706h2.2v1.508h-2.428l-.665,5.01H1008.7l.664-5.01H1006.7l-.664,5.01Zm5.087-6.518.486-3.706h-2.659l-.486,3.706Z" transform="translate(-871.982 -882.902)" fill="#fff"/>
        <path id="Path_159726" data-name="Path 159726" d="M1116.765,1017.728h-.051l-2.889,1.559-.435-1.713,3.63-1.943h1.917v16.615h-2.173Z" transform="translate(-967.884 -882.902)" fill="#fff"/>
        <path id="Path_159727" data-name="Path 159727" d="M1217.656,88.707c-.2.8-.547,2.068-.547,2.068.028.348.13,1.8.253,3.573l-2.61-1.044a28.207,28.207,0,0,0-.085-3.071c-.1-.15-.264.037-1.064-1.108a2.238,2.238,0,0,1-.274-.921s-.048-.727.116-.794a.339.339,0,0,1,.409.166c.059.126.044.418.1.544a.9.9,0,0,0,.6.269,9.711,9.711,0,0,0-.02-2.15s-.089-.607-.134-.806c-.038-.17-.193-.666-.193-.666s-.181-.721.043-.776c.132-.032.469.553.7,1.175a12.618,12.618,0,0,0,.46,1.37c.167-.022.078-1.2.078-1.2a3.778,3.778,0,0,1-.162-.792c-.157-.311-.261-.888.015-.936a4.772,4.772,0,0,1,.415.724s.143.516.227.757c.147.426.169,1.1.246,1.394.064.246.121.145.148.155a6.127,6.127,0,0,0-.056-.8,4.708,4.708,0,0,0-.059-.775,5.7,5.7,0,0,1-.111-.818c-.045-.607.338-.545.47.01.05.212.1.443.156.677.206.91.2,1.788.3,1.8a6.61,6.61,0,0,0,.043-1.588s.2-.884.39-.064a7.151,7.151,0,0,1,.2,1.763,6.914,6.914,0,0,1-.048,1.865" transform="translate(-1054.755 -72.684)" fill="#f8a492"/>
        <path id="Path_159728" data-name="Path 159728" d="M1162.761,145.952s-2.941-.7-2.969-.468c-.618,5.174-.9,7.045-1,7.1-.356.183-5.081-4.137-5.923-4.43a3.518,3.518,0,0,0-1.262-.1c-1,.03-1.2.033-1.2.033l-.037,0,.005.943c1.129,1.016,3.714,16.4,3.931,16.392.243-.011,5.352,1.274,5.262.844-.015-.07-3.464-2.892-4.441-6.965-.329-1.367-.491-2.84-.669-4.128,1.135.569,5.568,2.751,6.271,2.463,2.186-.9,2.032-11.68,2.032-11.68" transform="translate(-1000.03 -126.43)" fill="#3c8f7c"/>
        <path id="Path_159729" data-name="Path 159729" d="M1312.5,347.374s4.753,3.723,4.912,4.383c.228.951,4.581-.3,3.531-.493-.242-.044-1.014-.241-1.078-.275-.34-.182-4.569-5.278-4.569-5.278Z" transform="translate(-1140.973 -300.532)" fill="#f7a491"/>
        <path id="Path_159730" data-name="Path 159730" d="M1354.52,386.555l-3.035-.247a4.3,4.3,0,0,1-2.534.751,3.886,3.886,0,0,0-.14,1.652c.022.154.048.618.2.607.561-.038,2.054-.41,3.756-.75a14.666,14.666,0,0,0,3.609-1.275c1.321-.79-1.858-.738-1.858-.738" transform="translate(-1172.508 -335.823)" fill="#b75742"/>
        <path id="Path_159731" data-name="Path 159731" d="M1141.546,274.984a20.775,20.775,0,0,0,7.33-.316c4.454-1.042,9.38-2.005,10.823-1.166,1.162.675,8.416,11.636,8.416,11.636l-2.8,2.044-7.987-8.944s-10.19,3.76-12.479,3.343c-5.212-.949-5.286-5.111-3.3-6.6" transform="translate(-991.314 -237.481)" fill="#13375b"/>
        <path id="Path_159732" data-name="Path 159732" d="M1153.347,270.043l3.483,4.139-6.461,1.968-.828-3.9Z" transform="translate(-999.31 -234.752)" fill="#13375b"/>
        <path id="Path_159733" data-name="Path 159733" d="M1230.5,414.7s-.212,5.749-.343,6.722,2.439,3.889,2.111,2.873c-.075-.234-.27-1.007-.27-1.079,0-.385.953-6.943.953-6.943Z" transform="translate(-1069.388 -360.503)" fill="#f7a491"/>
        <path id="Path_159734" data-name="Path 159734" d="M1217.666,471.158l-1.9-3.086a4.3,4.3,0,0,1-1.866-1.873,3.885,3.885,0,0,0-1.52.662c-.125.092-.975.714-.915.857a16.326,16.326,0,0,0,2.641,2.894,34.073,34.073,0,0,0,3.118,2.234c1.323.787.44-1.688.44-1.688" transform="translate(-1053.14 -405.273)" fill="#b75742"/>
        <path id="Path_159735" data-name="Path 159735" d="M1144.04,271.907c-1.217-1.623-11.04-3.164-11.04-3.164l-2.739-5.264-6.057,3.735a54.855,54.855,0,0,0,1.06,6.107c.606,1.716,4.676,1.8,7.162,1.778,2.287-.024,6.465.443,6.465.443l-1.413,12.467a19.525,19.525,0,0,0,3.558.53c.088-.012,4.517-14.612,3-16.631" transform="translate(-977.284 -229.045)" fill="#355389"/>
        <path id="Path_159736" data-name="Path 159736" d="M1126.408,165.768l-3.417.191s-.078.024-.1.028c-.278.051-.026,10.01.223,13.729a24.878,24.878,0,0,0,.752,5.282,55.666,55.666,0,0,0,6.057-1.375,10.445,10.445,0,0,0,2.019-2.015,14.985,14.985,0,0,1-2.195-5.149c-.567-2.458-1.266-6.816-1.666-7.725a12.982,12.982,0,0,0-1.67-2.965" transform="translate(-976.035 -144.105)" fill="#9bc1f9"/>
        <path id="Path_159737" data-name="Path 159737" d="M1124.579,141.035l-.1,3.017s2.212,3.812,3.348,3.28c.953-.446.107-3.345.107-3.345s-.165-.665-.394-1.428a5.53,5.53,0,0,1-.283-1.536c.024-1.031-2.681.012-2.681.012" transform="translate(-977.526 -122.198)" fill="#f7a491"/>
        <path id="Path_159738" data-name="Path 159738" d="M1127.841,141.023c.024-1.031-2.681.012-2.681.012l-.01.295a1.524,1.524,0,0,0,.3.344,3.723,3.723,0,0,0,2.634.758,5.189,5.189,0,0,1-.245-1.408" transform="translate(-978.107 -122.198)" fill="#f47458"/>
        <path id="Path_159739" data-name="Path 159739" d="M1127.987,91.488a7.873,7.873,0,0,1,1.211,3.129,7.418,7.418,0,0,1-.219,2.406l-3.617-4.324Z" transform="translate(-978.291 -79.532)" fill="#184655"/>
        <path id="Path_159740" data-name="Path 159740" d="M1150.515,107.509c.051.5-.144.931-.435.961s-.568-.352-.619-.853.144-.931.435-.96.568.352.619.853" transform="translate(-999.233 -92.717)" fill="#f48c7f"/>
        <path id="Path_159741" data-name="Path 159741" d="M1116.208,96.473c-.083-.018-.075,4.145,1.131,5.125s3.307,1.066,3.92.079c.678-1.091.033-5.478-1.761-6.409s-3.29,1.206-3.29,1.206" transform="translate(-970.306 -82.613)" fill="#f7a491"/>
        <path id="Path_159742" data-name="Path 159742" d="M1099.453,80.007a6.687,6.687,0,0,0-1.99,2.833c-.766,1.765.754,3.594,2.029,4.321a2.454,2.454,0,0,1,1.381,1.606l.053-.542a1.357,1.357,0,0,0-.017-.5,2.327,2.327,0,0,0-.181-.44c-.109-.232-.457-1.027-.593-1.237-.359-.553-.43-.673-.253-1.2.136-.4-.021-1.3.189-1.964l1.716-.37a3.592,3.592,0,0,0,1.616-.884c1.557-1.8-1.521-3.8-3.951-1.627" transform="translate(-953.858 -68.729)" fill="#184655"/>
        <path id="Path_159743" data-name="Path 159743" d="M1113.188,122.649c.212.457.168.927-.1,1.05s-.652-.148-.863-.6-.168-.927.1-1.05.652.148.863.6" transform="translate(-966.755 -106.069)" fill="#f7a491"/>
        <path id="Path_159744" data-name="Path 159744" d="M1030.364,5.1c.195.8.547,2.068.547,2.068-.028.348-.13,1.8-.253,3.573l2.61-1.044a28.177,28.177,0,0,1,.085-3.071c.1-.15.264.037,1.064-1.108a2.234,2.234,0,0,0,.274-.921s.048-.727-.116-.794a.338.338,0,0,0-.409.166c-.059.126-.044.418-.1.544a.9.9,0,0,1-.6.269,9.719,9.719,0,0,1,.02-2.15s.089-.607.134-.806c.038-.17.193-.666.193-.666s.181-.721-.043-.776c-.132-.032-.468.553-.7,1.175a12.621,12.621,0,0,1-.46,1.37c-.167-.022-.079-1.2-.079-1.2a3.762,3.762,0,0,0,.162-.792c.157-.311.261-.888-.015-.936a4.773,4.773,0,0,0-.415.724s-.143.516-.227.757c-.147.425-.169,1.1-.246,1.393-.064.246-.121.145-.148.156a6.06,6.06,0,0,1,.056-.8,4.656,4.656,0,0,1,.059-.775,5.68,5.68,0,0,0,.111-.818c.045-.607-.338-.545-.47.01-.05.212-.1.443-.156.677-.205.911-.2,1.788-.3,1.8a6.611,6.611,0,0,1-.043-1.588s-.2-.884-.39-.064a7.152,7.152,0,0,0-.2,1.763,6.907,6.907,0,0,0,.048,1.865" transform="translate(-895.625 -0.005)" fill="#f8a492"/>
        <path id="Path_159745" data-name="Path 159745" d="M1035.939,74.6a21.514,21.514,0,0,1-4.262-.553c-.53-.24-4.883-3.747-4.883-3.747l.049-9.392-3.061-.233s-1.588,10.381-1.038,11.517c.568,1.173,6.94,6,8.214,8.1.734,1.208,2.265,17.632,2.5,17.78,1.649.858,6.74,1.715,6.62,1.195a188.873,188.873,0,0,1-4.136-24.667" transform="translate(-888.983 -52.747)" fill="#3c8f7c"/>
        <path id="Path_159746" data-name="Path 159746" d="M658.7,456.38c.195.8.547,2.068.547,2.068-.028.348-.131,1.8-.253,3.573l2.61-1.044a28.178,28.178,0,0,1,.085-3.071c.1-.15.264.037,1.064-1.108a2.234,2.234,0,0,0,.274-.921s.048-.727-.116-.794a.339.339,0,0,0-.409.166c-.059.126-.044.418-.1.544a.9.9,0,0,1-.6.269,9.711,9.711,0,0,1,.02-2.15s.089-.607.134-.806c.038-.17.193-.666.193-.666s.181-.721-.043-.776c-.132-.032-.468.553-.7,1.175a12.553,12.553,0,0,1-.46,1.37c-.167-.022-.078-1.2-.078-1.2a3.764,3.764,0,0,0,.162-.792c.157-.311.261-.888-.015-.936a4.782,4.782,0,0,0-.415.724s-.143.516-.226.757a14.142,14.142,0,0,0-.246,1.394c-.064.246-.122.145-.148.155a6.151,6.151,0,0,1,.056-.8,4.729,4.729,0,0,1,.059-.775,5.674,5.674,0,0,0,.112-.818c.045-.607-.338-.545-.47.01-.05.212-.1.443-.156.677-.205.911-.2,1.788-.3,1.8a6.612,6.612,0,0,1-.044-1.588s-.2-.884-.39-.064a7.138,7.138,0,0,0-.2,1.763,6.9,6.9,0,0,0,.048,1.865" transform="translate(-572.535 -392.307)" fill="#f8a492"/>
        <path id="Path_159747" data-name="Path 159747" d="M842.489,440.228c-.2.8-.547,2.068-.547,2.068.028.348.131,1.8.253,3.573l-2.61-1.044a28.174,28.174,0,0,0-.085-3.07c-.1-.15-.264.037-1.064-1.108a2.233,2.233,0,0,1-.274-.921s-.048-.727.116-.794a.339.339,0,0,1,.409.167c.059.126.044.418.1.544a.9.9,0,0,0,.6.269,9.718,9.718,0,0,0-.02-2.15s-.089-.607-.134-.806c-.038-.169-.193-.666-.193-.666s-.181-.721.043-.776c.132-.032.468.553.7,1.175a12.6,12.6,0,0,0,.46,1.37c.167-.022.079-1.2.079-1.2a3.775,3.775,0,0,1-.162-.792c-.157-.311-.261-.888.015-.936a4.793,4.793,0,0,1,.415.724s.143.516.226.757a14.116,14.116,0,0,1,.246,1.393c.064.246.122.145.148.156a6.14,6.14,0,0,0-.056-.8,4.688,4.688,0,0,0-.059-.775,5.7,5.7,0,0,1-.112-.818c-.044-.607.338-.545.47.01.05.212.1.442.156.677.205.91.2,1.788.3,1.8a6.613,6.613,0,0,0,.044-1.588s.2-.884.39-.064a7.143,7.143,0,0,1,.2,1.763,6.905,6.905,0,0,1-.047,1.865" transform="translate(-728.618 -378.266)" fill="#f8a492"/>
        <path id="Path_159748" data-name="Path 159748" d="M723.845,542.486a1.429,1.429,0,0,1,2.4.3,1.062,1.062,0,0,1,1.4.361s1.487-.448,1.848,1.776c0,0,.765-.144.866.765a2.251,2.251,0,0,1-.361,1.516s.43.322.235,1.159a1.035,1.035,0,0,1-.754.819s-.159,1.2-.679,1.56a1.694,1.694,0,0,1-1.227.188.8.8,0,0,1-.794.592c-.607-.058-1.357-.635-2.036-.375a7.251,7.251,0,0,1-2.44-.014,2.46,2.46,0,0,1-1.386-2.9,1.479,1.479,0,0,1-.13-2.065,2.573,2.573,0,0,1,.65-2.8,3.428,3.428,0,0,1,2.411-.881" transform="translate(-626.262 -471.119)" fill="#07345a"/>
        <path id="Path_159749" data-name="Path 159749" d="M802.684,995.065a19.959,19.959,0,0,0,1.808,2.015c.361.221-.161,2.828-1.143,3-.554.1-.861-.513-.861-.513l.159-.751-2.068-2.13Z" transform="translate(-695.953 -865.023)" fill="#f7a491"/>
        <path id="Path_159750" data-name="Path 159750" d="M744.375,998.455a19.962,19.962,0,0,0,1.536,2.23c.329.265-.521,2.784-1.517,2.828-.561.025-.789-.619-.789-.619l.253-.724-1.779-2.377Z" transform="translate(-645.099 -867.969)" fill="#f7a491"/>
        <path id="Path_159751" data-name="Path 159751" d="M744.649,1014.925a15.234,15.234,0,0,1-1.071,1.235,12.709,12.709,0,0,1-1.113.9s-.708,1.285-.9,1.733a7.476,7.476,0,0,0-.845,2.669c.022.179.425.369.761.266,1.4-.43,4.972-3.7,5.424-4.577.521-1.012-2.255-2.223-2.255-2.223" transform="translate(-643.91 -882.287)" fill="#07345a"/>
        <path id="Path_159752" data-name="Path 159752" d="M683.495,779.221c.13-.364.254-.7.375-1.016,1.487.325,3.166.681,4.894,1.049l.21,6.332c0-.489-1.3,10.1-1.3,10.1s3.357,7.432,5.653,11.764a7.923,7.923,0,0,1-2.749,2.356c-3.564-4.272-8.228-12.09-8.422-13.391-.111-.748-.212-12.835,1.338-17.2" transform="translate(-592.958 -676.503)" fill="#b75742"/>
        <path id="Path_159753" data-name="Path 159753" d="M741.082,788.033c-.454,4.934-1.464,14.367-1.38,15.125.254.946,4.747,9.674,5.555,10.945a5.452,5.452,0,0,1-2.705,2.3c-.211.057-7.626-10.494-8.03-11.332-.457-.947-1.218-6.111-1.232-12.5l-.21-6.332c2.878.614,5.525,1.215,8,1.8" transform="translate(-637.275 -683.485)" fill="#f47458"/>
        <path id="Path_159754" data-name="Path 159754" d="M689.8,627.891l3.388.465s2.716.066,3.052.066,2.464,12.359,3.08,17.011.139,5.475.139,5.475a29.811,29.811,0,0,1-7.474.685,24.368,24.368,0,0,1-7.023-2.077s2.825-8.938,3.385-11.729,1.453-9.9,1.453-9.9" transform="translate(-595.449 -545.834)" fill="#96d9c9"/>
        <path id="Path_159755" data-name="Path 159755" d="M658.675,510.085s-.217,9.215.13,9.92c.505,1.025,6.195,8.3,6.195,8.3s-2.718,11.373-3.86,15.3c-.115.4-.625,2.95-.625,3.2,0,.552,2.4,1.253,2.69,1.212.255-.037,2.353-10.856,3.692-16.15a15.141,15.141,0,0,1,2.3-5l.931-1.323-7.148-7.164s-.881-7.974-.881-8.635c0-.173-3.076-.3-3.422.347" transform="translate(-572.536 -443)" fill="#13375b"/>
        <path id="Path_159756" data-name="Path 159756" d="M753.114,508.314l8.913-9.081s1.242-8.588,1.33-8.911,2.3-.49,3.192-.576c.286-.028-.15,9.147-.576,10.685-.5,1.817-7.241,10.095-7.241,10.095a27.534,27.534,0,0,0-.917,7.772c.483,5.462,1.785,12.976,1.552,13.212-1.448.912-7.008,1.01-7.36.443-3.886-6.258,1.107-23.637,1.107-23.637" transform="translate(-652.442 -425.741)" fill="#13375b"/>
        <path id="Path_159757" data-name="Path 159757" d="M745.481,600.159l-.24,1.784s-.539,2.57.154,3.066,2.947-3.139,2.947-3.139l-.238-4.521Z" transform="translate(-647.673 -519.283)" fill="#f7a491"/>
        <path id="Path_159758" data-name="Path 159758" d="M749.75,598.814a5.127,5.127,0,0,1-2.9,2.857l.2-1.512,2.623-2.81Z" transform="translate(-649.242 -519.283)" fill="#f47458"/>
        <path id="Path_159759" data-name="Path 159759" d="M785.064,565.547c0,.688-.392,1.247-.875,1.247s-.875-.558-.875-1.247.391-1.247.875-1.247.875.558.875,1.247" transform="translate(-680.945 -490.553)" fill="#07345a"/>
        <path id="Path_159760" data-name="Path 159760" d="M762.469,548.569c0,.4-.476.716-1.064.716s-1.064-.321-1.064-.716.476-.716,1.064-.716,1.064.321,1.064.716" transform="translate(-660.973 -476.256)" fill="#07345a"/>
        <path id="Path_159761" data-name="Path 159761" d="M734.175,560.15a2.384,2.384,0,0,0-3.12,1.9,18.033,18.033,0,0,0-.193,2.289c-.038,2.084,1.041,4.112,1.987,4.112a4.464,4.464,0,0,0,3.656-4.307,3.944,3.944,0,0,0-2.329-3.993" transform="translate(-635.346 -486.834)" fill="#f7a491"/>
        <path id="Path_159762" data-name="Path 159762" d="M768.711,587.818a.694.694,0,1,0,.681-.832.768.768,0,0,0-.681.832" transform="translate(-668.249 -510.275)" fill="#f7a491"/>
        <path id="Path_159763" data-name="Path 159763" d="M718,548.84c-.977.774-1.32,1.951-.765,2.628s1.8.6,2.774-.176,1.32-1.951.765-2.628-1.8-.6-2.774.176" transform="translate(-623.27 -476.561)" fill="#07345a"/>
        <path id="Path_159764" data-name="Path 159764" d="M744.409,553.879c0,.337.406.609.907.609s.907-.273.907-.609-.406-.609-.907-.609-.907.273-.907.609" transform="translate(-647.124 -480.965)" fill="#07345a"/>
        <path id="Path_159765" data-name="Path 159765" d="M723.748,572.534a.775.775,0,1,0,.775-.783.779.779,0,0,0-.775.783" transform="translate(-629.163 -497.031)" fill="#07345a"/>
        <path id="Path_159766" data-name="Path 159766" d="M809.3,1009.968a15.217,15.217,0,0,1-.9,1.362,12.732,12.732,0,0,1-.989,1.032s-.538,1.365-.672,1.834a7.916,7.916,0,0,0-.5,2.851c.045.175.43.509.748.3a23.66,23.66,0,0,0,4.836-5.465c.387-1.07-2.52-1.917-2.52-1.917" transform="translate(-700.841 -877.978)" fill="#07345a"/>
        <path id="Path_159767" data-name="Path 159767" d="M1242.188,718.648a13.644,13.644,0,0,0-6.8,3.482,24.276,24.276,0,0,0-4.611,7.5l5.912,1.724s-2.363-5.513,5.5-12.709" transform="translate(-1069.933 -624.73)" fill="#fae0b2"/>
        <path id="Path_159768" data-name="Path 159768" d="M1302.027,668.322l-.424-3.33-2.983-1.539a.461.461,0,0,1,.015-.827l3.036-1.432.542-3.313a.461.461,0,0,1,.791-.241l2.3,2.445,3.318-.508a.461.461,0,0,1,.474.678l-1.614,2.943,1.509,3a.461.461,0,0,1-.5.661l-3.3-.626-2.385,2.362a.461.461,0,0,1-.782-.27" transform="translate(-1128.689 -571.568)" fill="#f7cc7f"/>
        <path id="Path_159769" data-name="Path 159769" d="M531.106,854.294a13.645,13.645,0,0,1,6.8,3.482,24.282,24.282,0,0,1,4.611,7.5L536.6,867s2.363-5.513-5.5-12.709" transform="translate(-461.697 -742.649)" fill="#fae0b2"/>
        <path id="Path_159770" data-name="Path 159770" d="M475.411,803.968l.424-3.33,2.983-1.539a.461.461,0,0,0-.015-.827l-3.036-1.432-.542-3.313a.461.461,0,0,0-.791-.242l-2.3,2.445-3.318-.509a.461.461,0,0,0-.474.678l1.615,2.943-1.509,3a.461.461,0,0,0,.5.661l3.3-.626,2.385,2.362a.461.461,0,0,0,.782-.27" transform="translate(-407.085 -689.487)" fill="#f7cc7f"/>
        <path id="Path_159771" data-name="Path 159771" d="M1520.167,711.566l.914-1.544-.754-1.629a.247.247,0,0,1,.278-.344l1.751.392,1.316-1.22a.246.246,0,0,1,.413.158l.168,1.787,1.567.874a.247.247,0,0,1-.022.442l-1.648.712-.347,1.761a.247.247,0,0,1-.427.115l-1.186-1.347-1.781.214a.247.247,0,0,1-.242-.371" transform="translate(-1321.469 -614.739)" fill="#466eb6"/>
        <path id="Path_159772" data-name="Path 159772" d="M845.048,169.326l1.154-1.949-.951-2.055a.311.311,0,0,1,.35-.434l2.21.5,1.66-1.54a.311.311,0,0,1,.521.2l.212,2.255,1.977,1.1a.311.311,0,0,1-.028.557l-2.079.9-.438,2.222a.311.311,0,0,1-.539.145l-1.5-1.7-2.248.27a.311.311,0,0,1-.3-.467" transform="translate(-734.572 -142.359)" fill="#f79c8d"/>
        <path id="Path_159773" data-name="Path 159773" d="M1460.635,243.379l-3.046,2.033,1.7,2.957-2.912,2.135,1.279,3.027-1.918,1.954.989.971,2.565-2.613-1.212-2.868,3.029-2.221-1.675-2.908L1462.2,244Z" transform="translate(-1265.494 -211.573)" fill="#f48c7f"/>
        <path id="Path_159774" data-name="Path 159774" d="M1441.019,589l-2.155-2.961-2.885,1.822-2.252-2.823-2.972,1.4-2.03-1.837-.93,1.028,2.715,2.457,2.817-1.328,2.342,2.937,2.838-1.792,1.952,2.683Z" transform="translate(-1241.199 -508.206)" fill="#f48c7f"/>
        <path id="Path_159775" data-name="Path 159775" d="M713.469,68.913l.731-3.588-3.292-.9.564-3.566-3.04-1.248-.014-2.738-1.386.007.019,3.662,2.881,1.183-.587,3.71,3.237.886-.663,3.251Z" transform="translate(-614.632 -49.44)" fill="#f48c7f"/>
        <path id="Path_159776" data-name="Path 159776" d="M518.66,185.525l1.394,2.6,3.007-.168,1.356,3.029,3.147-1.167,1.685,3.357,3.03-.717,2.149,2.965-1.122.813-1.607-2.217-3.2.757-1.619-3.227-3.2,1.186-1.5-3.342-2.936.164-1.292-2.413-1.906.511-.359-1.339Z" transform="translate(-448.298 -161.279)" fill="#f7cc7f"/>
        <path id="Path_159777" data-name="Path 159777" d="M382.289,303.381l-2.219.225-.757-3.531-3.285-.071-1-2.549-1.291.505,1.335,3.41,3.113.067.787,3.673,3.339-.339Z" transform="translate(-324.896 -258.582)" fill="#50bfa5"/>
        <path id="Path_159778" data-name="Path 159778" d="M350.285,635.7l-.831,2.07-3.479-.968-1.588,2.877-2.722-.3-.151,1.378,3.64.4,1.5-2.727,3.619,1.007,1.25-3.115Z" transform="translate(-296.883 -552.618)" fill="#50bfa5"/>
        <path id="Path_159779" data-name="Path 159779" d="M384.194,447.081a6.178,6.178,0,1,1-8.735.182,6.178,6.178,0,0,1,8.735-.182" transform="translate(-324.896 -387.159)" fill="#fff3d9"/>
        <path id="Path_159780" data-name="Path 159780" d="M395.96,464.167l-2.629.808-.825,2.624a.268.268,0,0,1-.475.074l-1.581-2.25-2.75.027a.268.268,0,0,1-.217-.429l1.652-2.2-.875-2.607a.268.268,0,0,1,.341-.339l2.6.891,2.209-1.638a.268.268,0,0,1,.428.22l-.044,2.75,2.24,1.595a.268.268,0,0,1-.077.475" transform="translate(-336.797 -399.08)" fill="#fed333"/>
        <path id="Path_159781" data-name="Path 159781" d="M1619.141,525.759a6.178,6.178,0,1,1-8.735.182,6.178,6.178,0,0,1,8.735-.182" transform="translate(-1398.451 -455.555)" fill="#fff3d9"/>
        <path id="Path_159782" data-name="Path 159782" d="M1630.907,542.844l-2.629.808-.825,2.623a.268.268,0,0,1-.475.074l-1.581-2.25-2.75.026a.268.268,0,0,1-.217-.429l1.652-2.2-.875-2.607a.268.268,0,0,1,.341-.339l2.6.891,2.209-1.638a.268.268,0,0,1,.428.22l-.044,2.75,2.24,1.6a.268.268,0,0,1-.077.475" transform="translate(-1410.351 -467.475)" fill="#fed333"/>
        <path id="Path_159783" data-name="Path 159783" d="M1459.729,445.555l1.08,1.794a.274.274,0,0,0,.489-.041l.767-1.949,2.04-.473a.274.274,0,0,0,.112-.478l-1.616-1.332.181-2.086a.274.274,0,0,0-.42-.254l-1.766,1.125-1.928-.817a.274.274,0,0,0-.372.321l.525,2.027-1.372,1.582a.274.274,0,0,0,.19.452Z" transform="translate(-1266.919 -383.101)" fill="#f47458"/>
        <path id="Path_159784" data-name="Path 159784" d="M1429.689,784.018a1.252,1.252,0,1,1-1.251-1.252,1.252,1.252,0,0,1,1.251,1.252" transform="translate(-1240.67 -680.468)" fill="#50bfa5"/>
        <path id="Path_159785" data-name="Path 159785" d="M307.467,493.714a1.36,1.36,0,1,1-1.356-1.252,1.307,1.307,0,0,1,1.356,1.252" transform="translate(-264.927 -428.104)" fill="#50bfa5"/>
        <path id="Path_159786" data-name="Path 159786" d="M859.73,22.431l1.643.324s2.4-1.122,2.585-1.662.1-1.787.451-1.865a1.087,1.087,0,0,1,1.324.779c.2.6-.484,2.489-.32,2.661a8.7,8.7,0,0,0,1.73.466,1.239,1.239,0,0,1,.938.891h0a.682.682,0,0,1-.333.78l-.432.232.2.451a.682.682,0,0,1-.324.893l-.337.162.148.272a.682.682,0,0,1-.326.949l-.3.127.023.081a.681.681,0,0,1-.4.818l-.295.118-4.376-.865a3.021,3.021,0,0,1-1.142-.486l-1.487-.563a.349.349,0,0,1-.215-.4l.831-3.888a.348.348,0,0,1,.406-.273" transform="translate(-746.291 -16.691)" fill="#96d9c9"/>
      </g>
    </g>
    <rect id="Rectangle_12043" data-name="Rectangle 12043" width="295" height="205" transform="translate(1020 853)" fill="none"/>
  </g>
</svg>
