<svg xmlns="http://www.w3.org/2000/svg" width="38.172" height="40.797" viewBox="0 0 38.172 40.797">
  <g id="Group_73618" data-name="Group 73618" transform="translate(-734.119 -1218.084)">
    <path id="Path_158599" data-name="Path 158599" d="M14.013,30.616A13.4,13.4,0,0,1,4.1,26.138a16.355,16.355,0,0,1,0-21.66,13.212,13.212,0,0,1,19.827,0,16.355,16.355,0,0,1,0,21.66,13.4,13.4,0,0,1-9.914,4.478m0-27.173a10.383,10.383,0,0,0-7.684,3.47,12.675,12.675,0,0,0,0,16.789,10.244,10.244,0,0,0,15.369,0,12.675,12.675,0,0,0,0-16.789,10.387,10.387,0,0,0-7.684-3.47" transform="translate(735.12 1219.084)" stroke="#060606" stroke-width="2"/>
    <path id="Path_161258" data-name="Path 161258" d="M0,0,3.3-.146,2.57,16.345l-3.3.146Z" transform="translate(756.818 1245.223) rotate(-44.996)" stroke="#030303" stroke-width="2"/>
  </g>
</svg>
